<?xml version="1.0" standalone="no"?>
<!DOCTYPE svg PUBLIC "-//W3C//DTD SVG 1.1//EN" "http://www.w3.org/Graphics/SVG/1.1/DTD/svg11.dtd" >
<svg>
<metadata>
Created by FontForge 20090622 at Mon May 27 16:47:13 2019
 By deploy user
C&#38;C Red Alert LAN Font created by N3tRunn3r [email: N3tRunn3r@hotmail.de]
</metadata>
<defs>
<font id="C&CRedAlertLAN" horiz-adv-x="469" >
  <font-face 
    font-family="C&C Red Alert [LAN]"
    font-weight="400"
    font-stretch="normal"
    units-per-em="1000"
    panose-1="2 0 0 0 0 0 0 0 0 0"
    ascent="750"
    descent="-250"
    x-height="546"
    cap-height="702"
    bbox="-39 -156 1170 780"
    underline-thickness="50"
    underline-position="-50"
    unicode-range="U+0021-U+2212"
  />
<missing-glyph horiz-adv-x="500" 
 />
    <glyph glyph-name=".notdef" horiz-adv-x="500" 
 />
    <glyph glyph-name="A" unicode="A" horiz-adv-x="622" 
d="M312 624h78v-234h78v-234h78v-156h-78v156h-78v78h-234v-78h-78v234h78v-78h234v78h-78v234h-78v78h78v-78zM156 390v234h78v-234h-78zM0 156h78v-156h-78v156z" />
    <glyph glyph-name="B" unicode="B" horiz-adv-x="547" 
d="M0 702h390v-78h78v-546h-78v234h-312v-234h312v-78h-390v702zM390 624h-312v-234h312v234z" />
    <glyph glyph-name="C" unicode="C" horiz-adv-x="624" 
d="M78 78v78h-78v390h78v-390h78v-78h-78zM546 468h-78v78h-78v78h-234v78h234v-78h78v-78h78v-78zM390 78v-78h-234v78h234zM468 156v-78h-78v78h78zM546 234v-78h-78v78h78zM156 546h-78v78h78v-78z" />
    <glyph glyph-name="D" unicode="D" horiz-adv-x="623" 
d="M546 156h-78v390h-78v78h-312v-546h312v-78h-390v702h390v-78h78v-78h78v-390zM468 78h-78v78h78v-78z" />
    <glyph glyph-name="E" unicode="E" horiz-adv-x="548" 
d="M468 702v-78h-390v-234h390v-78h-390v-234h390v-78h-468v702h468z" />
    <glyph glyph-name="F" unicode="F" 
d="M0 702h390v-78h-312v-234h234v-78h-234v-312h-78v702z" />
    <glyph glyph-name="G" unicode="G" horiz-adv-x="624" 
d="M156 78h-78v78h-78v390h78v-390h78v-78zM546 468h-78v78h-78v78h-234v78h234v-78h78v-78h78v-78zM468 156v156h-156v78h234v-234h-78zM390 78v-78h-234v78h234zM78 624h78v-78h-78v78zM468 78h-78v78h78v-78z" />
    <glyph glyph-name="H" unicode="H" horiz-adv-x="624" 
d="M78 702v-312h390v312h78v-702h-78v312h-390v-312h-78v702h78z" />
    <glyph glyph-name="I" unicode="I" horiz-adv-x="155" 
d="M78 702v-702h-78v702h78z" />
    <glyph glyph-name="J" unicode="J" horiz-adv-x="468" 
d="M390 78h-78v624h78v-624zM312 0h-234v78h-78v156h78v-156h234v-78z" />
    <glyph glyph-name="K" unicode="K" horiz-adv-x="622" 
d="M78 702v-390h78v-78h-78v-234h-78v702h78zM546 0h-78v78h-78v78h-78v78h-78v78h78v-78h78v-78h78v-78h78v-78zM390 546v-78h-78v78h78zM546 702v-78h-78v78h78zM234 468h78v-78h-78v78zM468 624v-78h-78v78h78zM156 312v78h78v-78h-78z" />
    <glyph glyph-name="L" unicode="L" horiz-adv-x="547" 
d="M78 702v-624h390v-78h-468v702h78z" />
    <glyph glyph-name="M" unicode="M" horiz-adv-x="624" 
d="M312 390h-78v78h-78v78h-78v-546h-78v702h78v-78h78v-78h78v-78h78v-78zM390 624h78v78h78v-702h-78v546h-78v78zM390 546v-78h-78v78h78z" />
    <glyph glyph-name="N" unicode="N" horiz-adv-x="622" 
d="M468 234h-78v78h-78v78h-78v78h-78v78h-78v-546h-78v702h78v-78h78v-78h78v-78h78v-78h78v-78h78v390h78v-702h-78v234z" />
    <glyph glyph-name="O" unicode="O" horiz-adv-x="626" 
d="M546 156h-78v390h-78v78h-234v78h234v-78h78v-78h78v-390zM156 78h-78v78h-78v390h78v-390h78v-78zM390 78v-78h-234v78h234zM156 624v-78h-78v78h78zM468 156v-78h-78v78h78z" />
    <glyph glyph-name="P" unicode="P" 
d="M390 390h-78v234h-234v-234h234v-78h-234v-312h-78v702h312v-78h78v-234z" />
    <glyph glyph-name="Q" unicode="Q" horiz-adv-x="624" 
d="M546 156h-78v390h-78v78h-234v78h234v-78h78v-78h78v-390zM78 546v-390h78v-78h-78v78h-78v390h78zM390 234v-78h78v-78h78v-78h-78v78h-78v78h-156v78h156zM390 78v-78h-234v78h234zM156 624v-78h-78v78h78z" />
    <glyph glyph-name="R" unicode="R" horiz-adv-x="547" 
d="M234 312h-156v-312h-78v702h390v-78h78v-234h-78v234h-312v-234h312v-78h-78v-78h78v-156h78v-78h-78v78h-78v156h-78v78z" />
    <glyph glyph-name="S" unicode="S" horiz-adv-x="548" 
d="M78 390h312v-78h78v-234h-78v234h-312v78h-78v234h78v-234zM78 78h-78v156h78v-156h312v-78h-312v78zM468 468h-78v156h-312v78h312v-78h78v-156z" />
    <glyph glyph-name="T" unicode="T" horiz-adv-x="624" 
d="M546 702v-78h-234v-624h-78v624h-234v78h546z" />
    <glyph glyph-name="U" unicode="U" horiz-adv-x="624" 
d="M78 78v78h-78v546h78v-546h78v-78h234v-78h-234v78h-78zM546 702v-546h-78v546h78zM468 156v-78h-78v78h78z" />
    <glyph glyph-name="V" unicode="V" horiz-adv-x="624" 
d="M78 546h78v-234h78v-156h78v-156h-78v156h-78v156h-78v234h-78v156h78v-156zM390 312v234h78v-234h-78zM390 312v-156h-78v156h78zM546 702v-156h-78v156h78z" />
    <glyph glyph-name="W" unicode="W" horiz-adv-x="936" 
d="M78 546h78v-234h78v-156h78v-156h-78v156h-78v156h-78v234h-78v156h78v-156zM624 0h-78v156h-78v156h-78v78h78v-78h78v-156h78v-156zM780 546v-234h-78v234h78zM390 312v-156h-78v156h78zM702 312v-156h-78v156h78zM858 702v-156h-78v156h78z" />
    <glyph glyph-name="X" unicode="X" horiz-adv-x="622" 
d="M312 234v78h-78v78h-78v78h-78v156h-78v78h78v-78h78v-156h78v-78h78v-78h78v-78h-78zM546 0h-78v78h-78v156h78v-156h78v-78zM468 624v-156h-78v156h78zM156 78h-78v156h78v-156zM78 78v-78h-78v78h78zM546 702v-78h-78v78h78zM390 468v-78h-78v78h78zM234 234h-78v78
h78v-78z" />
    <glyph glyph-name="Y" unicode="Y" horiz-adv-x="626" 
d="M234 390h-78v78h-78v156h-78v78h78v-78h78v-156h78v-78h78v-390h-78v390zM468 624v-156h-78v156h78zM390 468v-78h-78v78h78zM546 702v-78h-78v78h78z" />
    <glyph glyph-name="Z" unicode="Z" horiz-adv-x="624" 
d="M546 702v-78h-78v-78h-78v78h-390v78h546zM78 78v78h78v-78h390v-78h-546v78h78zM390 546v-156h-78v156h78zM156 156v156h78v-156h-78zM312 390v-78h-78v78h78z" />
    <glyph glyph-name="zero" unicode="0" 
d="M390 78h-78v546h-234v78h234v-78h78v-546zM78 624v-546h-78v546h78zM312 78v-78h-234v78h234z" />
    <glyph glyph-name="one" unicode="1" horiz-adv-x="310" 
d="M156 0v546h-78v78h78v78h78v-702h-78zM78 546v-78h-78v78h78z" />
    <glyph glyph-name="two" unicode="2" horiz-adv-x="468" 
d="M78 78v78h78v-78h234v-78h-390v78h78zM312 624h78v-234h-78v234h-234v78h234v-78zM312 234h-78v156h78v-156zM234 234v-78h-78v78h78zM78 624v-78h-78v78h78z" />
    <glyph glyph-name="three" unicode="3" horiz-adv-x="467" 
d="M312 624h78v-234h-78v234h-234v78h234v-78zM312 390v-78h78v-234h-78v234h-156v78h156zM78 78h-78v78h78v-78h234v-78h-234v78zM78 624v-78h-78v78h78z" />
    <glyph glyph-name="four" unicode="4" horiz-adv-x="470" 
d="M234 156h-234v156h78v-78h156v234h-78v156h78v78h78v-468h78v-78h-78v-156h-78v156zM156 468v-156h-78v156h78z" />
    <glyph glyph-name="five" unicode="5" 
d="M78 468h234v-78h78v-312h-78v312h-234v-78h-78v234h78v-78zM390 624h-234v-78h-78v156h312v-78zM78 78h-78v78h78v-78h234v-78h-234v78z" />
    <glyph glyph-name="six" unicode="6" 
d="M0 78v546h78v-234h78v-78h-78v-234h-78zM312 468v-78h78v-312h-78v312h-156v78h156zM390 546h-78v78h-234v78h234v-78h78v-78zM312 78v-78h-234v78h234z" />
    <glyph glyph-name="seven" unicode="7" 
d="M390 702v-78h-78v-156h-78v156h-234v78h390zM78 0v234h78v-234h-78zM234 468v-234h-78v234h78z" />
    <glyph glyph-name="eight" unicode="8" 
d="M312 390v-78h78v-234h-78v234h-234v78h234zM312 702v-78h78v-234h-78v234h-234v78h234zM312 78v-78h-234v78h234zM0 78v234h78v-234h-78zM78 624v-234h-78v234h78z" />
    <glyph glyph-name="nine" unicode="9" horiz-adv-x="468" 
d="M312 390v234h-234v78h234v-78h78v-546h-78v234h-78v78h78zM234 234h-156v78h-78v312h78v-312h156v-78zM78 78h-78v78h78v-78h234v-78h-234v78z" />
    <glyph glyph-name="colon" unicode=":" horiz-adv-x="310" 
d="M234 0h-78v78h78v-78zM234 468h-78v78h78v-78z" />
    <glyph glyph-name="semicolon" unicode=";" horiz-adv-x="155" 
d="M78 78v-234h-78v234h78zM78 468h-78v78h78v-78z" />
    <glyph glyph-name="less" unicode="&#x3c;" horiz-adv-x="470" 
d="M78 78v78h-78v78h78v-78h234v-78h-234zM312 312v-78h-234v78h234zM390 312h-78v78h78v-78zM390 78v-78h-78v78h78z" />
    <glyph glyph-name="equal" unicode="=" horiz-adv-x="546" 
d="M468 156v-78h-468v78h468zM0 390h468v-78h-468v78z" />
    <glyph glyph-name="greater" unicode="&#x3e;" 
d="M78 312h234v-78h78v-78h-78v78h-234v78h-78v78h78v-78zM312 156v-78h-234v78h234zM78 78v-78h-78v78h78z" />
    <glyph glyph-name="question" unicode="?" 
d="M312 624h78v-234h-78v234h-234v78h234v-78zM0 468v156h78v-156h-78zM156 156v156h78v-156h-78zM234 0h-78v78h78v-78zM234 312v78h78v-78h-78z" />
    <glyph glyph-name="at" unicode="@" horiz-adv-x="857" 
d="M156 0v78h-78v78h-78v312h78v-312h78v-78h546v-78h-546zM468 156v78h-78v78h78v156h-156v78h234v-312h78v-78h-156zM780 312h-78v234h-78v78h-390v78h390v-78h78v-78h78v-234zM156 234v156h78v-156h-78zM234 234h156v-78h-156v78zM234 624v-78h-78v78h78zM780 78h-78v78
h78v-78zM624 234v78h78v-78h-78zM156 546v-78h-78v78h78zM234 468h78v-78h-78v78z" />
    <glyph glyph-name="exclam" unicode="!" horiz-adv-x="155" 
d="M0 156v546h78v-546h-78zM78 0h-78v78h78v-78z" />
    <glyph glyph-name="quotedbl" unicode="&#x22;" horiz-adv-x="470" 
d="M234 702v-234h-78v234h78zM390 468h-78v234h78v-234z" />
    <glyph glyph-name="numbersign" unicode="#" horiz-adv-x="624" 
d="M156 234v78h-156v78h156v156h-156v78h234v156h78v-156h78v156h78v-156h78v-78h-156v-156h156v-78h-156v-78h-78v78h-78v-78h-78zM78 234h78v-156h-78v156zM234 546v-156h78v156h-78zM234 234h78v-156h-78v156z" />
    <glyph glyph-name="dollar" unicode="$" 
d="M390 468h-78v78h-78v-234h78v-78h78v-234h-78v234h-78v-234h78v-78h-78v-78h-78v78h-78v78h-78v156h78v-156h78v234h-78v78h-78v234h78v-234h78v234h-78v78h78v78h78v-78h78v-78h78v-78z" />
    <glyph glyph-name="percent" unicode="%" horiz-adv-x="782" 
d="M468 78h-78v156h-78v156h-78v234h-156v78h156v-78h78v-156h78v-156h78v-234h156v-78h-156v78zM78 390h-78v234h78v-234h156v-78h-156v78zM702 78h-78v234h-156v78h156v-78h78v-234zM312 78h-78v156h78v-156zM390 468v156h78v-156h-78zM546 702v-78h-78v78h78zM234 78v-78
h-78v78h78z" />
    <glyph glyph-name="ampersand" unicode="&#x26;" horiz-adv-x="626" 
d="M78 624h78v-234h78v-78h78v-78h78v-78h78v-78h78v-78h-78v78h-156v156h-78v78h-156v312zM390 468h-78v156h-156v78h156v-78h78v-156zM312 78v-78h-234v78h234zM0 78v234h78v-234h-78zM312 468v-78h-78v78h78zM468 234h-78v78h78v-78z" />
    <glyph glyph-name="quotesingle" unicode="'" horiz-adv-x="155" 
d="M78 468h-78v234h78v-234z" />
    <glyph glyph-name="parenleft" unicode="(" horiz-adv-x="313" 
d="M234 -156h-78v78h-78v156h-78v390h78v-390h78v-156h78v-78zM78 624h78v-156h-78v156zM234 624h-78v78h78v-78z" />
    <glyph glyph-name="parenright" unicode=")" horiz-adv-x="311" 
d="M234 78h-78v390h-78v156h-78v78h78v-78h78v-156h78v-390zM78 -78v156h78v-156h-78zM0 -156v78h78v-78h-78z" />
    <glyph glyph-name="asterisk" unicode="*" 
d="M312 390h-78v78h-78v78h-156v78h156v78h78v-78h156v-78h-156v-78h78v-78zM156 468v-78h-78v78h78z" />
    <glyph glyph-name="plus" unicode="+" horiz-adv-x="779" 
d="M312 312h-312v78h312v312h78v-312h312v-78h-312v-312h-78v312z" />
    <glyph glyph-name="comma" unicode="," horiz-adv-x="155" 
d="M78 -156h-78v234h78v-234z" />
    <glyph glyph-name="hyphen" unicode="-" horiz-adv-x="310" 
d="M234 390v-78h-234v78h234z" />
    <glyph glyph-name="period" unicode="." horiz-adv-x="313" 
d="M234 0h-78v78h78v-78z" />
    <glyph glyph-name="slash" unicode="/" horiz-adv-x="313" 
d="M78 156v390h78v-390h-78zM234 546h-78v156h78v-156zM0 0v156h78v-156h-78z" />
    <glyph glyph-name="bracketleft" unicode="[" horiz-adv-x="233" 
d="M0 -156v858h156v-78h-78v-702h78v-78h-156z" />
    <glyph glyph-name="bracketright" unicode="]" horiz-adv-x="233" 
d="M78 -78v702h-78v78h156v-858h-156v78h78z" />
    <glyph glyph-name="backslash" unicode="\" horiz-adv-x="311" 
d="M234 0h-78v156h-78v390h-78v156h78v-156h78v-390h78v-156z" />
    <glyph glyph-name="asciicircum" unicode="^" 
d="M390 390h-78v78h-78v156h-78v78h78v-78h78v-156h78v-78zM156 624v-156h-78v156h78zM0 390v78h78v-78h-78z" />
    <glyph glyph-name="underscore" unicode="_" horiz-adv-x="624" 
d="M546 0v-78h-546v78h546z" />
    <glyph glyph-name="grave" unicode="`" horiz-adv-x="233" 
d="M0 624v78h78v-78h78v-156h-78v78h-78v78z" />
    <glyph glyph-name="asciitilde" unicode="~" horiz-adv-x="547" 
d="M390 546h-156v78h-156v78h156v-78h156v-78zM390 702h78v-78h-78v78zM78 546h-78v78h78v-78z" />
    <glyph glyph-name="braceright" unicode="}" horiz-adv-x="310" 
d="M234 234h-78v78h-78v312h-78v78h78v-78h78v-312h78v-78zM156 234v-312h-78v312h78zM78 -78v-78h-78v78h78z" />
    <glyph glyph-name="braceleft" unicode="{" horiz-adv-x="313" 
d="M234 -156h-78v78h-78v312h-78v78h78v-78h78v-312h78v-78zM156 624v-312h-78v312h78zM234 624h-78v78h78v-78z" />
    <glyph glyph-name="bar" unicode="|" horiz-adv-x="315" 
d="M234 702v-858h-78v858h78z" />
    <glyph glyph-name="ellipsis" unicode="&#x2026;" horiz-adv-x="939" 
d="M234 0h-78v78h78v-78zM547 0h-78v78h78v-78zM860 0h-78v78h78v-78z" />
    <glyph glyph-name="a" unicode="a" horiz-adv-x="467" 
d="M312 546v-78h78v-468h-78v78h-78v78h78v78h-234v78h234v156h-234v78h234zM234 0h-156v78h-78v156h78v-156h156v-78zM78 468v-78h-78v78h78z" />
    <glyph glyph-name="b" unicode="b" horiz-adv-x="470" 
d="M156 78h-78v-78h-78v702h78v-234h78v-78h-78v-234h78v-78h156v-78h-156v78zM390 78h-78v390h-156v78h156v-78h78v-390z" />
    <glyph glyph-name="c" unicode="c" horiz-adv-x="391" 
d="M0 78v390h78v-390h-78zM312 390h-78v78h-156v78h156v-78h78v-78zM234 78v-78h-156v78h156zM312 156v-78h-78v78h78z" />
    <glyph glyph-name="d" unicode="d" 
d="M234 546v-78h78v234h78v-702h-312v78h234v312h-78v78h-156v78h156zM0 468h78v-390h-78v390z" />
    <glyph glyph-name="e" unicode="e" 
d="M0 78v390h78v-156h234v156h-234v78h234v-78h78v-234h-312v-156h234v-78h-234v78h-78zM390 78h-78v78h78v-78z" />
    <glyph glyph-name="f" unicode="f" horiz-adv-x="391" 
d="M156 624v-78h78v-78h-78v-468h-78v468h-78v78h78v78h78zM312 702v-78h-156v78h156z" />
    <glyph glyph-name="g" unicode="g" horiz-adv-x="467" 
d="M234 468h-156v78h156v-78h78v78h78v-624h-78v156h-78v78h78v234h-78v78zM0 78v390h78v-390h-78zM312 -78v-78h-312v78h312zM234 78v-78h-156v78h156z" />
    <glyph glyph-name="h" unicode="h" horiz-adv-x="470" 
d="M78 702v-234h78v-78h-78v-390h-78v702h78zM390 0h-78v468h-156v78h156v-78h78v-468z" />
    <glyph glyph-name="i" unicode="i" horiz-adv-x="155" 
d="M78 546v-546h-78v546h78zM78 702v-78h-78v78h78z" />
    <glyph glyph-name="j" unicode="j" horiz-adv-x="233" 
d="M78 -78v624h78v-624h-78zM156 702v-78h-78v78h78zM78 -78v-78h-78v78h78z" />
    <glyph glyph-name="k" unicode="k" 
d="M390 0h-78v78h-78v156h-156v-234h-78v702h78v-390h78v78h78v-156h78v-156h78v-78zM390 546v-78h-78v78h78zM312 468v-78h-78v78h78z" />
    <glyph glyph-name="l" unicode="l" horiz-adv-x="155" 
d="M78 702v-702h-78v702h78z" />
    <glyph glyph-name="m" unicode="m" horiz-adv-x="781" 
d="M312 468h-156v78h156v-78h156v-78h-78v-390h-78v468zM702 0h-78v468h-156v78h156v-78h78v-468zM78 546v-78h78v-78h-78v-390h-78v546h78z" />
    <glyph glyph-name="n" unicode="n" horiz-adv-x="467" 
d="M78 546v-78h78v-78h-78v-390h-78v546h78zM390 0h-78v468h-156v78h156v-78h78v-468z" />
    <glyph glyph-name="o" unicode="o" 
d="M390 78h-78v390h-234v78h234v-78h78v-390zM0 78v390h78v-390h-78zM312 78v-78h-234v78h234z" />
    <glyph glyph-name="p" unicode="p" 
d="M312 0h-156v78h-78v-234h-78v702h78v-78h78v-78h-78v-234h78v-78h156v-78zM390 78h-78v390h-156v78h156v-78h78v-390z" />
    <glyph glyph-name="q" unicode="q" 
d="M234 468h-156v78h156v-78h78v78h78v-702h-78v234h-78v78h78v234h-78v78zM0 78v390h78v-390h-78zM234 78v-78h-156v78h156z" />
    <glyph glyph-name="r" unicode="r" horiz-adv-x="313" 
d="M78 546v-78h78v-78h-78v-390h-78v546h78zM234 468h-78v78h78v-78z" />
    <glyph glyph-name="s" unicode="s" horiz-adv-x="467" 
d="M78 312h234v-78h78v-156h-78v156h-234v78h-78v156h78v-156zM390 390h-78v78h-234v78h234v-78h78v-78zM78 78h-78v78h78v-78h234v-78h-234v78z" />
    <glyph glyph-name="t" unicode="t" horiz-adv-x="313" 
d="M156 702v-156h78v-78h-78v-390h78v-78h-156v468h-78v78h78v156h78z" />
    <glyph glyph-name="u" unicode="u" 
d="M78 78h234v468h78v-546h-312v78zM0 78v468h78v-468h-78z" />
    <glyph glyph-name="v" unicode="v" 
d="M234 0h-78v156h-78v234h-78v156h78v-156h78v-234h78v-156zM234 156v234h78v-234h-78zM390 546v-156h-78v156h78z" />
    <glyph glyph-name="w" unicode="w" horiz-adv-x="779" 
d="M234 0h-78v156h-78v234h-78v156h78v-156h78v-234h78v-156zM546 0h-78v156h-78v234h-78v156h78v-156h78v-234h78v-156zM546 390h78v-234h-78v234zM312 156h-78v234h78v-234zM702 390h-78v156h78v-156z" />
    <glyph glyph-name="x" unicode="x" 
d="M390 0h-78v78h-78v156h-78v78h-78v156h-78v78h78v-78h78v-156h78v-78h78v-156h78v-78zM312 468v-156h-78v156h78zM156 78h-78v156h78v-156zM78 0h-78v78h78v-78zM390 546v-78h-78v78h78z" />
    <glyph glyph-name="y" unicode="y" horiz-adv-x="468" 
d="M234 -78h-78v234h-78v234h-78v156h78v-156h78v-234h78v-234zM234 156v234h78v-234h-78zM390 546v-156h-78v156h78zM78 -78h78v-78h-78v78z" />
    <glyph glyph-name="z" unicode="z" 
d="M156 78h234v-78h-390v78h78v156h78v-156zM390 546v-78h-78v-156h-78v156h-234v78h390zM156 234v78h78v-78h-78z" />
    <glyph glyph-name="Euro" unicode="&#x20ac;" horiz-adv-x="547" 
d="M468 234h-78v-156h-78v156h-234v-156h234v-78h-234v78h-78v546h78v-156h234v156h-234v78h234v-78h78v-156h78v-78h-78v-78h78v-78zM78 312h234v78h-234v-78z" />
    <glyph glyph-name="quotesinglbase" unicode="&#x201a;" horiz-adv-x="155" 
d="M78 78v-234h-78v234h78z" />
    <glyph glyph-name="florin" unicode="&#x192;" horiz-adv-x="391" 
d="M0 -78h78v546h-78v78h78v78h78v-78h78v-78h-78v-624h-156v78zM312 702v-78h-156v78h156z" />
    <glyph glyph-name="quotedblbase" unicode="&#x201e;" horiz-adv-x="313" 
d="M78 78v-234h-78v234h78zM234 78v-234h-78v234h78z" />
    <glyph glyph-name="dagger" unicode="&#x2020;" horiz-adv-x="315" 
d="M234 702v-858h-78v858h78zM234 390v-78h-234v78h234z" />
    <glyph glyph-name="daggerdbl" unicode="&#x2021;" horiz-adv-x="546" 
d="M234 702v-858h-78v858h78zM468 156v-78h-468v78h468zM0 390h468v-78h-468v78z" />
    <glyph glyph-name="circumflex" unicode="&#x2c6;" horiz-adv-x="468" 
d="M390 390h-78v78h-78v156h-78v78h78v-78h78v-156h78v-78zM156 624v-156h-78v156h78zM78 468v-78h-78v78h78z" />
    <glyph glyph-name="perthousand" unicode="&#x2030;" horiz-adv-x="1016" 
d="M624 0h-156v78h-78v156h-78v156h-78v234h-156v78h156v-78h78v-156h78v-156h78v-234h156v-78zM702 0v78h-78v234h-156v78h156v-78h78v-234h156v-78h-156zM936 78h-78v234h-156v78h156v-78h78v-234zM0 390v234h78v-234h-78zM468 468h-78v156h78v-156zM234 390v-78h-156v78
h156zM312 234v-156h-78v156h78zM234 78v-78h-78v78h78zM468 702h78v-78h-78v78z" />
    <glyph glyph-name="OE" unicode="&#x152;" horiz-adv-x="1174" 
d="M546 156h-78v390h-78v78h-234v78h234v-78h78v-78h78v-390zM156 78h-78v78h-78v390h78v-390h78v-78zM390 78v-78h-234v78h234zM156 624v-78h-78v78h78zM468 156v-78h-78v78h78zM1094 702v-78h-390v-234h390v-78h-390v-234h390v-78h-468v702h468z" />
    <glyph glyph-name="trademark" unicode="&#x2122;" horiz-adv-x="1248" 
d="M546 702v-78h-234v-624h-78v624h-234v78h546zM936 390h-78v78h-78v78h-78v-546h-78v702h78v-78h78v-78h78v-78h78v-78zM1014 624h78v78h78v-702h-78v546h-78v78zM1014 546v-78h-78v78h78z" />
    <glyph glyph-name="cent" unicode="&#xa2;" horiz-adv-x="391" 
d="M0 78v390h78v-390h-78zM312 390h-78v78h-156v78h156v-78h78v-78zM234 78v-78h-156v78h156zM312 156v-78h-78v78h78zM234 702v-858h-78v858h78z" />
    <glyph glyph-name="sterling" unicode="&#xa3;" horiz-adv-x="547" 
d="M78 702v-624h390v-78h-468v702h78zM390 430v-78h-234v78h234z" />
    <glyph glyph-name="currency" unicode="&#xa4;" horiz-adv-x="624" 
d="M78 234v390h-78v78h78v-78h390v-390h-390zM156 312h234v234h-234v-234zM0 156v78h78v-78h-78zM546 702v-78h-78v78h78zM546 156h-78v78h78v-78z" />
    <glyph glyph-name="yen" unicode="&#xa5;" horiz-adv-x="626" 
d="M234 312v78h-78v78h-78v156h-78v78h78v-78h78v-156h78v-78h78v-78h156v-78h-156v-78h156v-78h-156v-78h-78v78h-156v78h156v78h-156v78h156zM468 624v-156h-78v156h78zM390 468v-78h-78v78h78zM546 702v-78h-78v78h78z" />
    <glyph glyph-name="brokenbar" unicode="&#xa6;" horiz-adv-x="313" 
d="M156 -156v234h78v-234h-78zM156 702h78v-234h-78v234zM156 390h78v-234h-78v234z" />
    <glyph glyph-name="oe" unicode="&#x153;" horiz-adv-x="938" 
d="M390 78h-78v390h-234v78h234v-78h78v-390zM0 78v390h78v-390h-78zM312 78v-78h-234v78h234zM469 78v390h78v-156h234v156h-234v78h234v-78h78v-234h-312v-156h234v-78h-234v78h-78zM859 78h-78v78h78v-78z" />
    <glyph glyph-name="section" unicode="&#xa7;" horiz-adv-x="391" 
d="M80 390v78h-78v156h78v-156h156v-78h78v-156h-78v156h-156zM80 156v78h-78v156h78v-156h156v-78h-156zM236 0v-78h-234v78h234zM314 702v-78h-234v78h234zM314 156v-156h-78v156h78z" />
    <glyph glyph-name="twosuperior" unicode="&#xb2;" horiz-adv-x="468" 
d="M78 78v78h78v-78h234v-78h-390v78h78zM312 624h78v-234h-78v234h-234v78h234v-78zM312 234h-78v156h78v-156zM234 234v-78h-78v78h78zM78 624v-78h-78v78h78z" />
    <glyph glyph-name="threesuperior" unicode="&#xb3;" horiz-adv-x="467" 
d="M312 624h78v-234h-78v234h-234v78h234v-78zM312 390v-78h78v-234h-78v234h-156v78h156zM78 78h-78v78h78v-78h234v-78h-234v78zM78 624v-78h-78v78h78z" />
    <glyph glyph-name="onesuperior" unicode="&#xb9;" horiz-adv-x="310" 
d="M156 0v546h-78v78h78v78h78v-702h-78zM78 546v-78h-78v78h78z" />
    <glyph glyph-name="onequarter" unicode="&#xbc;" horiz-adv-x="1093" 
d="M156 0v546h-78v78h78v78h78v-702h-78zM78 546v-78h-78v78h78zM388 156v390h78v-390h-78zM544 546h-78v156h78v-156zM310 0v156h78v-156h-78zM857 156h-234v156h78v-78h156v234h-78v156h78v78h78v-468h78v-78h-78v-156h-78v156zM779 468v-156h-78v156h78z" />
    <glyph glyph-name="onehalf" unicode="&#xbd;" horiz-adv-x="1091" 
d="M156 0v546h-78v78h78v78h78v-702h-78zM78 546v-78h-78v78h78zM388 156v390h78v-390h-78zM544 546h-78v156h78v-156zM310 0v156h78v-156h-78zM701 78v78h78v-78h234v-78h-390v78h78zM935 624h78v-234h-78v234h-234v78h234v-78zM935 234h-78v156h78v-156zM857 234v-78h-78
v78h78zM701 624v-78h-78v78h78z" />
    <glyph glyph-name="threequarters" unicode="&#xbe;" horiz-adv-x="1250" 
d="M312 624h78v-234h-78v234h-234v78h234v-78zM312 390v-78h78v-234h-78v234h-156v78h156zM78 78h-78v78h78v-78h234v-78h-234v78zM78 624v-78h-78v78h78zM545 156v390h78v-390h-78zM701 546h-78v156h78v-156zM467 0v156h78v-156h-78zM1014 156h-234v156h78v-78h156v234h-78
v156h78v78h78v-468h78v-78h-78v-156h-78v156zM936 468v-156h-78v156h78z" />
    <glyph glyph-name="questiondown" unicode="&#xbf;" 
d="M312 624h78v-234h-78v234h-234v78h234v-78zM0 468v156h78v-156h-78zM156 156v156h78v-156h-78zM234 0h-78v78h78v-78zM234 312v78h78v-78h-78z" />
    <glyph glyph-name="copyright" unicode="&#xa9;" horiz-adv-x="624" 
d="M468 234v390h-390v78h390v-78h78v-390h-78zM390 468h-156v-78h156v-78h-234v234h234v-78zM78 234h390v-78h-390v78zM0 234v390h78v-390h-78z" />
    <glyph glyph-name="registered" unicode="&#xae;" horiz-adv-x="624" 
d="M546 234h-78v390h-390v78h390v-78h78v-390zM390 468h-78v-78h78v-78h-78v78h-78v-78h-78v234h234v-78zM468 234v-78h-390v78h390zM0 234v390h78v-390h-78z" />
    <glyph glyph-name="ordfeminine" unicode="&#xaa;" horiz-adv-x="467" 
d="M312 546v-78h78v-468h-78v78h-78v78h78v78h-234v78h234v156h-234v78h234zM234 0h-156v78h-78v156h78v-156h156v-78zM78 468v-78h-78v78h78z" />
    <glyph glyph-name="dieresis" unicode="&#xa8;" horiz-adv-x="548" 
d="M234 702v-78h-78v78h78zM468 702v-78h-78v78h78z" />
    <glyph glyph-name="tilde" unicode="&#x2dc;" horiz-adv-x="391" 
d="M234 546h-78v78h-78v78h78v-78h78v-78zM234 702h78v-78h-78v78zM78 624v-78h-78v78h78z" />
    <glyph glyph-name="guillemotleft" unicode="&#xab;" horiz-adv-x="700" 
d="M312 0h-78v78h-156v78h-78v78h78v-78h156v-78h78v-78zM624 0h-78v78h-156v78h-78v78h78v-78h156v-78h78v-78zM234 312v-78h-156v78h156zM546 312v-78h-156v78h156zM624 390v-78h-78v78h78zM312 390v-78h-78v78h78z" />
    <glyph glyph-name="guillemotright" unicode="&#xbb;" horiz-adv-x="702" 
d="M78 312h156v-78h78v-78h-78v78h-156v78h-78v78h78v-78zM624 156h-78v78h-156v78h-78v78h78v-78h156v-78h78v-78zM390 156h156v-78h-156v78zM234 156v-78h-156v78h156zM78 78v-78h-78v78h78zM390 0h-78v78h78v-78z" />
    <glyph glyph-name="logicalnot" unicode="&#xac;" horiz-adv-x="391" 
d="M312 390v-156h-78v78h-234v78h312z" />
    <glyph glyph-name="minus" unicode="&#x2212;" horiz-adv-x="468" 
d="M390 390v-78h-390v78h390z" />
    <glyph glyph-name="degree" unicode="&#xb0;" horiz-adv-x="391" 
d="M312 468h-78v156h-156v78h156v-78h78v-156zM78 468h-78v156h78v-156h156v-78h-156v78z" />
    <glyph glyph-name="plusminus" unicode="&#xb1;" horiz-adv-x="626" 
d="M312 702v-234h234v-78h-234v-234h-78v234h-234v78h234v234h78zM546 78v-78h-546v78h546z" />
    <glyph glyph-name="bullet" unicode="&#x2022;" horiz-adv-x="391" 
d="M234 468v-78h78v-156h-78v-78h-156v78h-78v156h78v78h156z" />
    <glyph glyph-name="endash" unicode="&#x2013;" 
d="M390 390v-78h-390v78h390z" />
    <glyph glyph-name="emdash" unicode="&#x2014;" horiz-adv-x="624" 
d="M546 390v-78h-546v78h546z" />
    <glyph glyph-name="guilsinglleft" unicode="&#x2039;" horiz-adv-x="391" 
d="M312 0h-78v78h-156v78h-78v78h78v-78h156v-78h78v-78zM78 312h156v-78h-156v78zM312 390v-78h-78v78h78z" />
    <glyph glyph-name="guilsinglright" unicode="&#x203a;" horiz-adv-x="391" 
d="M78 312h156v-78h78v-78h-78v78h-156v78h-78v78h78v-78zM234 156v-78h-156v78h156zM78 78v-78h-78v78h78z" />
    <glyph glyph-name="quoteleft" unicode="&#x2018;" horiz-adv-x="157" 
d="M78 702v-234h-78v234h78z" />
    <glyph glyph-name="quoteright" unicode="&#x2019;" horiz-adv-x="155" 
d="M0 468v234h78v-234h-78z" />
    <glyph glyph-name="quotedblleft" unicode="&#x201c;" horiz-adv-x="310" 
d="M78 468h-78v234h78v-234zM234 702v-234h-78v234h78z" />
    <glyph glyph-name="quotedblright" unicode="&#x201d;" horiz-adv-x="310" 
d="M78 468h-78v234h78v-234zM234 702v-234h-78v234h78z" />
    <glyph glyph-name="exclamdown" unicode="&#xa1;" horiz-adv-x="155" 
d="M0 156v546h78v-546h-78zM78 0h-78v78h78v-78z" />
    <glyph glyph-name="acute" unicode="&#xb4;" horiz-adv-x="235" 
d="M0 624h78v78h78v-156h-78v-78h-78v156z" />
    <glyph glyph-name="multiply" unicode="&#xd7;" horiz-adv-x="313" 
d="M234 156h-78v156h-78v78h-78v156h78v-156h78v-78h78v-156zM0 156v156h78v-156h-78zM234 546v-156h-78v156h78z" />
    <glyph glyph-name="Oslash" unicode="&#xd8;" horiz-adv-x="626" 
d="M546 156h-78v390h-78v78h-234v78h234v-78h78v-78h78v-390zM156 78h-78v78h-78v390h78v-390h78v-78zM390 78v-78h-234v78h234zM156 624v-78h-78v78h78zM468 156v-78h-78v78h78zM274 156v390h78v-390h-78zM430 546h-78v156h78v-156zM196 0v156h78v-156h-78z" />
    <glyph glyph-name="Eth" unicode="&#xd0;" horiz-adv-x="623" 
d="M546 156h-78v390h-78v78h-312v-546h312v-78h-390v702h390v-78h78v-78h78v-390zM468 78h-78v78h78v-78zM428 390v-78h-234v78h234z" />
    <glyph glyph-name="mu" unicode="&#xb5;" 
d="M0 546h78v-468h234v-78h-234v-156h-78v702zM312 78v468h78v-468h-78z" />
    <glyph glyph-name="thorn" unicode="&#xfe;" horiz-adv-x="468" 
d="M0 -156v858h78v-234h78v-78h-78v-234h78v-78h156v-78h-156v78h-78v-234h-78zM390 78h-78v390h-156v78h156v-78h78v-390z" />
    <glyph glyph-name="AE" unicode="&#xc6;" horiz-adv-x="1170" 
d="M312 624h78v-234h78v-234h78v-156h-78v156h-78v78h-234v-78h-78v234h78v-78h234v78h-78v234h-78v78h78v-78zM156 390v234h78v-234h-78zM0 156h78v-156h-78v156zM1090 702v-78h-390v-234h390v-78h-390v-234h390v-78h-468v702h468z" />
    <glyph glyph-name="ae" unicode="&#xe6;" horiz-adv-x="936" 
d="M312 546v-78h78v-468h-78v78h-78v78h78v78h-234v78h234v156h-234v78h234zM234 0h-156v78h-78v156h78v-156h156v-78zM78 468v-78h-78v78h78zM467 78v390h78v-156h234v156h-234v78h234v-78h78v-234h-312v-156h234v-78h-234v78h-78zM857 78h-78v78h78v-78z" />
    <glyph glyph-name="oslash" unicode="&#xf8;" 
d="M390 78h-78v390h-234v78h234v-78h78v-390zM0 78v390h78v-390h-78zM312 78v-78h-234v78h234zM195 156v390h78v-390h-78zM351 546h-78v156h78v-156zM117 0v156h78v-156h-78z" />
    <glyph glyph-name="divide" unicode="&#xf7;" horiz-adv-x="310" 
d="M234 0h-78v78h78v-78zM234 468h-78v78h78v-78zM351 390v-78h-390v78h390z" />
    <glyph glyph-name="Thorn" unicode="&#xde;" horiz-adv-x="467" 
d="M1 -81v858h78v-234h78v-78h-78v-234h78v-78h156v-78h-156v78h-78v-234h-78zM391 153h-78v390h-156v78h156v-78h78v-390z" />
    <glyph glyph-name="ordmasculine" unicode="&#xba;" horiz-adv-x="696" 
d="M390 78h-78v390h-234v78h234v-78h78v-390zM0 78v390h78v-390h-78zM312 78v-78h-234v78h234z" />
    <glyph glyph-name="paragraph" unicode="&#xb6;" horiz-adv-x="624" 
d="M78 624v78h312v-858h-78v468h-234v78h-78v234h78zM546 702v-858h-78v858h78z" />
    <glyph glyph-name="Adieresis" unicode="&#xc4;" horiz-adv-x="622" 
d="M78 624h-78v78h78v-78zM546 624h-78v78h78v-78zM312 624h78v-234h78v-234h78v-156h-78v156h-78v78h-234v-78h-78v234h78v-78h234v78h-78v234h-78v78h78v-78zM156 390v234h78v-234h-78zM0 156h78v-156h-78v156z" />
    <glyph glyph-name="Odieresis" unicode="&#xd6;" horiz-adv-x="626" 
d="M78 78v78h-78v312h78v-312h78v-78h-78zM468 546v-78h78v-312h-78v312h-78v78h78zM390 78v-78h-234v78h234zM390 546h-234v78h234v-78zM468 156v-78h-78v78h78zM156 546v-78h-78v78h78zM546 702v-78h-78v78h78zM78 624h-78v78h78v-78z" />
    <glyph glyph-name="Udieresis" unicode="&#xdc;" horiz-adv-x="624" 
d="M0 546h78v-390h78v-78h234v-78h-234v78h-78v78h-78v390zM468 156v390h78v-390h-78zM78 624h-78v78h78v-78zM468 156v-78h-78v78h78zM546 702v-78h-78v78h78z" />
    <glyph glyph-name="adieresis" unicode="&#xe4;" horiz-adv-x="467" 
d="M78 624v78h78v-78h-78zM312 702v-78h-78v78h78zM312 546v-78h78v-468h-78v78h-78v78h78v78h-234v78h234v156h-234v78h234zM234 0h-156v78h-78v156h78v-156h156v-78zM78 468v-78h-78v78h78z" />
    <glyph glyph-name="odieresis" unicode="&#xf6;" 
d="M78 624v78h78v-78h-78zM312 702v-78h-78v78h78zM390 78h-78v390h-234v78h234v-78h78v-390zM0 78v390h78v-390h-78zM312 78v-78h-234v78h234z" />
    <glyph glyph-name="udieresis" unicode="&#xfc;" 
d="M78 624v78h78v-78h-78zM312 702v-78h-78v78h78zM78 78h234v468h78v-546h-312v78zM0 78v468h78v-468h-78z" />
  </font>
</defs>
</svg>
